# xmcd
#
# Track frame offsets:
# 150
# 21340
# 42957
# 67712
# 92232
# 119080
# 139032
# 167057
# 184145
#
# Disc length: 2909 seconds
#
#
# Revision: 3
# Processed by: cddbd v1.4PL0 Copyright (c) Steve Scherf et al.
# Submitted via: FreeRIP 2.11 
#
DISCID=7a0b5b09
DTITLE=Robben Ford and The Blue Line - Robben Ford and The Blue Line
DYEAR=1992
DGENRE=Blues
TTITLE0=The Brother (for Jimmie and Stevie)
TTITLE1=You Cut Me To The Bone
TTITLE2=I'm A Real Man
TTITLE3=My Love Will Never Die
TTITLE4=Step On It
TTITLE5=Prison Of Love
TTITLE6=Tell Me I'm Your Man
TTITLE7=Start It Up
TTITLE8=Life Song (one for Annie)
EXTD=Musicians:\n\nRobben Ford\tGuitar and Vocals\nTom Brechtlein\tDrums and Clean Sneakers\nRoscoe Beck\tElectric and Acoustic Bass\n\nGRS 11022 YEAR: 1992 ID3G: 0
EXTT0=
EXTT1=
EXTT2=
EXTT3=
EXTT4=
EXTT5=
EXTT6=
EXTT7=
EXTT8=
PLAYORDER=
